<?xml version="1.0" encoding="UTF-8" standalone="no"?>
<svg width="300px" height="295px" viewBox="0 0 300 295" version="1.1" xmlns="http://www.w3.org/2000/svg" xmlns:xlink="http://www.w3.org/1999/xlink">
    <!-- Generator: Sketch 40.1 (33804) - http://www.bohemiancoding.com/sketch -->
    <title>Head Angry</title>
    <desc>Created with Sketch.</desc>
    <defs>
        <rect id="path-1" x="0" y="112" width="300" height="174" rx="60"></rect>
        <mask id="mask-2" maskContentUnits="userSpaceOnUse" maskUnits="objectBoundingBox" x="0" y="0" width="300" height="174" fill="white">
            <use xlink:href="#path-1"></use>
        </mask>
        <ellipse id="path-3" cx="150" cy="14" rx="14" ry="14"></ellipse>
        <mask id="mask-4" maskContentUnits="userSpaceOnUse" maskUnits="objectBoundingBox" x="-8" y="-8" width="44" height="44">
            <rect x="128" y="-8" width="44" height="44" fill="white"></rect>
            <use xlink:href="#path-3" fill="black"></use>
        </mask>
    </defs>
    <g id="Page-1" stroke="none" stroke-width="1" fill="none" fill-rule="evenodd">
        <g id="Head-Angry" transform="translate(0.000000, 8.000000)">
            <rect id="Rectangle-2" fill="#B2DFDB" x="0" y="60" width="300" height="227" rx="60"></rect>
            <use id="Rectangle-2-Copy" stroke="#B2DFDB" mask="url(#mask-2)" stroke-width="28" fill="#E0F2F1" xlink:href="#path-1"></use>
            <rect id="Rectangle-3" fill="#E0F2F1" x="14" y="113" width="272" height="69" rx="15"></rect>
            <polygon id="Triangle" fill="#B2DFDB" points="150 14 163 60 137 60"></polygon>
            <g id="Oval">
                <use fill="#E0F2F1" fill-rule="evenodd" xlink:href="#path-3"></use>
                <use stroke="#B2DFDB" mask="url(#mask-4)" stroke-width="16" xlink:href="#path-3"></use>
            </g>
            <g id="Mouth" transform="translate(69.000000, 209.000000)" stroke="#B2DFDB" stroke-width="9" stroke-linecap="square">
                <path d="M0.723688551,9.10424172 L23.2763114,0.89575828" id="Line-Copy"></path>
                <path d="M28.624123,9.20848344 L51.5526229,0.863191943" id="Line-Copy-2" transform="translate(40.088373, 5.035838) scale(-1, 1) translate(-40.088373, -5.035838) "></path>
                <path d="M56.7236886,9.10424172 L79.2763114,0.89575828" id="Line-Copy-4"></path>
                <path d="M84.624123,9.20848344 L107.552623,0.863191943" id="Line-Copy-3" transform="translate(96.088373, 5.035838) scale(-1, 1) translate(-96.088373, -5.035838) "></path>
                <path d="M112.723689,9.10424172 L135.276311,0.89575828" id="Line-Copy-6"></path>
                <path d="M140.624123,9.20848344 L163.552623,0.863191943" id="Line-Copy-5" transform="translate(152.088373, 5.035838) scale(-1, 1) translate(-152.088373, -5.035838) "></path>
            </g>
            <path d="M193.303845,166.972964 L232.696155,160.027036" id="Line" stroke="#B2DFDB" stroke-width="7" stroke-linecap="square"></path>
            <path d="M68.3038449,162.027036 L107.696155,168.972964" id="Line" stroke="#B2DFDB" stroke-width="7" stroke-linecap="square"></path>
        </g>
    </g>
</svg>