<?xml version="1.0" encoding="UTF-8" standalone="no"?>
<svg width="300px" height="295px" viewBox="0 0 300 295" version="1.1" xmlns="http://www.w3.org/2000/svg" xmlns:xlink="http://www.w3.org/1999/xlink">
    <!-- Generator: Sketch 40.1 (33804) - http://www.bohemiancoding.com/sketch -->
    <title>Head Sad</title>
    <desc>Created with Sketch.</desc>
    <defs>
        <rect id="path-1" x="0" y="112" width="300" height="174" rx="60"></rect>
        <mask id="mask-2" maskContentUnits="userSpaceOnUse" maskUnits="objectBoundingBox" x="0" y="0" width="300" height="174" fill="white">
            <use xlink:href="#path-1"></use>
        </mask>
        <ellipse id="path-3" cx="150" cy="14" rx="14" ry="14"></ellipse>
        <mask id="mask-4" maskContentUnits="userSpaceOnUse" maskUnits="objectBoundingBox" x="-8" y="-8" width="44" height="44">
            <rect x="128" y="-8" width="44" height="44" fill="white"></rect>
            <use xlink:href="#path-3" fill="black"></use>
        </mask>
        <rect id="path-5" x="4" y="7" width="79" height="47"></rect>
        <rect id="path-7" x="129" y="7" width="79" height="47"></rect>
    </defs>
    <g id="Page-1" stroke="none" stroke-width="1" fill="none" fill-rule="evenodd">
        <g id="Head-Sad" transform="translate(0.000000, 8.000000)">
            <rect id="Rectangle-2" fill="#B2DFDB" x="0" y="60" width="300" height="227" rx="60"></rect>
            <use id="Rectangle-2-Copy" stroke="#B2DFDB" mask="url(#mask-2)" stroke-width="28" fill="#E0F2F1" xlink:href="#path-1"></use>
            <rect id="Rectangle-3" fill="#E0F2F1" x="14" y="113" width="272" height="69" rx="15"></rect>
            <polygon id="Triangle" fill="#B2DFDB" points="150 14 163 60 137 60"></polygon>
            <g id="Oval">
                <use fill="#E0F2F1" fill-rule="evenodd" xlink:href="#path-3"></use>
                <use stroke="#B2DFDB" mask="url(#mask-4)" stroke-width="16" xlink:href="#path-3"></use>
            </g>
            <path d="M76,223 C76,223 107.882812,192.720703 150,192.720703 C192.117188,192.720703 226,223 226,223" id="Line" stroke="#B2DFDB" stroke-width="9" stroke-linecap="square"></path>
            <g id="Eyes" transform="translate(45.000000, 118.000000)">
                <mask id="mask-6" fill="white">
                    <use xlink:href="#path-5"></use>
                </mask>
                <g id="Rectangle-4" transform="translate(43.500000, 30.500000) rotate(-10.000000) translate(-43.500000, -30.500000) "></g>
                <circle id="Oval-2-Copy-2" stroke="#B2DFDB" stroke-width="7" mask="url(#mask-6)" transform="translate(43.500000, 53.500000) rotate(-10.000000) translate(-43.500000, -53.500000) " cx="43.5" cy="53.5" r="22.5"></circle>
                <mask id="mask-8" fill="white">
                    <use xlink:href="#path-7"></use>
                </mask>
                <g id="Rectangle-4" transform="translate(168.500000, 30.500000) rotate(10.000000) translate(-168.500000, -30.500000) "></g>
                <circle id="Oval-2-Copy-2" stroke="#B2DFDB" stroke-width="7" mask="url(#mask-8)" transform="translate(168.500000, 54.500000) rotate(10.000000) translate(-168.500000, -54.500000) " cx="168.5" cy="54.5" r="22.5"></circle>
            </g>
        </g>
    </g>
</svg>